<?xml version="1.0" encoding="UTF-8" standalone="no"?>
<!-- Created with Inkscape (http://www.inkscape.org/) -->

<svg
   width="63.999996"
   height="63.999996"
   viewBox="0 0 16.933332 16.933332"
   version="1.1"
   id="svg1"
   xmlns="http://www.w3.org/2000/svg"
   xmlns:svg="http://www.w3.org/2000/svg">
  <defs
     id="defs1" />
  <g
     id="layer1">
    <path
       style="fill:none;stroke:#000000;stroke-width:0.165;stroke-dasharray:none;stroke-opacity:1"
       d="M 2.2572768,1.9451002 C 1.6223159,3.3973374 1.5890972,5.1020219 2.1669989,6.5778938 2.7449005,8.0537657 3.9268053,9.2826488 5.3790425,9.9176097 6.8312797,10.552571 8.5359642,10.585789 10.011836,10.007888 11.487708,9.429986 12.716591,8.2480812 13.351552,6.795844 13.986513,5.3436068 14.019732,3.6389223 13.44183,2.1630504 12.863928,0.68717847 11.682024,-0.54170462 10.229786,-1.1766655 8.7775491,-1.8116264 7.0728646,-1.8448451 5.5969927,-1.2669434 4.1211208,-0.68904178 2.8922377,0.49286297 2.2572768,1.9451002 Z"
       id="path1"
       transform="matrix(1.0432594,0,0,1.0174524,0.4068065,3.4417148)" />
  </g>
  <g
     id="layer2">
    <path
       style="fill:#4d4d4d;stroke:#000000;stroke-width:0.413;stroke-linecap:butt;stroke-linejoin:round;stroke-dasharray:none;stroke-dashoffset:0;paint-order:markers fill stroke"
       d="m 4.0154543,5.8496523 1.4868674,-0.03051 0.5755616,3.8746702 H 11.114047 L 11.761553,6.5208551 6.1738102,6.5513642 H 5.5742669 l -0.047963,0.03051"
       id="path23" />
    <path
       style="fill:#ffaaaa;stroke:#000000;stroke-width:0.1"
       d="m 6.9159116,10.349854 c -0.097444,0.09116 -0.1567626,0.221868 -0.161208,0.35523 -0.00445,0.133362 0.046037,0.267733 0.1371945,0.365178 0.091158,0.09744 0.2218685,0.156762 0.3552304,0.161208 0.1333619,0.0044 0.2677326,-0.04604 0.3651771,-0.137195 0.097444,-0.09116 0.1567626,-0.221868 0.161208,-0.35523 0.00445,-0.133362 -0.046037,-0.267733 -0.1371945,-0.365178 -0.091158,-0.09744 -0.2218685,-0.156762 -0.3552304,-0.161208 -0.1333619,-0.0044 -0.2677326,0.04604 -0.3651771,0.137195 z"
       id="path24"
       transform="translate(0.19210866,0.16809508)" />
    <path
       style="fill:#ffaaaa;stroke:#000000;stroke-width:0.1"
       d="m 6.9159116,10.349854 c -0.097444,0.09116 -0.1567626,0.221868 -0.161208,0.35523 -0.00445,0.133362 0.046037,0.267733 0.1371945,0.365178 0.091158,0.09744 0.2218685,0.156762 0.3552304,0.161208 0.1333619,0.0044 0.2677326,-0.04604 0.3651771,-0.137195 0.097444,-0.09116 0.1567626,-0.221868 0.161208,-0.35523 0.00445,-0.133362 -0.046037,-0.267733 -0.1371945,-0.365178 -0.091158,-0.09744 -0.2218685,-0.156762 -0.3552304,-0.161208 -0.1333619,-0.0044 -0.2677326,0.04604 -0.3651771,0.137195 z"
       id="path24-8"
       transform="translate(2.8214387,0.1808075)" />
    <path
       style="fill:#cccccc;stroke:#000000;stroke-width:0.789921;stroke-dasharray:none"
       d="m 27.424792,42.649145 c -1.117344,-0.567772 -1.220708,-2.184064 -0.183566,-2.870412 1.068649,-0.707199 2.475311,-0.03522 2.597946,1.241069 0.123513,1.285425 -1.257335,2.217289 -2.41438,1.629343 z"
       id="path25"
       transform="scale(0.26458333)" />
    <path
       style="fill:#cccccc;stroke:#000000;stroke-width:0.789921;stroke-dasharray:none"
       d="m 37.643533,42.803295 c -0.53647,-0.196148 -0.777814,-0.392301 -0.990996,-0.805434 -0.762929,-1.478509 0.830814,-3.050533 2.271679,-2.240722 0.513769,0.288755 0.86357,0.873527 0.86357,1.443653 0,1.101624 -1.154452,1.964401 -2.144253,1.602503 z"
       id="path26"
       transform="scale(0.26458333)" />
    <path
       style="fill:#808080;stroke:#000000;stroke-width:0.034303"
       d="m 23.190561,36.281309 c -0.07293,-0.216029 -1.670483,-11.181002 -1.634297,-11.217188 0.03964,-0.03964 22.487802,-0.180744 22.539223,-0.141677 0.01733,0.01317 -0.493195,2.599768 -1.1345,5.748003 l -1.166008,5.724065 -9.283058,1.23e-4 c -7.345601,9.8e-5 -9.291053,-0.02356 -9.32136,-0.113326 z"
       id="path27"
       transform="scale(0.26458333)" />
  </g>
</svg>
