<?xml version="1.0" encoding="UTF-8" standalone="no"?>
<!-- Created with Inkscape (http://www.inkscape.org/) -->

<svg
   width="63.999996"
   height="63.999996"
   viewBox="0 0 16.933332 16.933332"
   version="1.1"
   id="svg1"
   inkscape:version="1.4 (86a8ad7, 2024-10-11)"
   sodipodi:docname="dibujo.svg"
   inkscape:export-filename="DAW 24-25\DIW\T.O2. prueba\imagenes\carroClaro.png"
   inkscape:export-xdpi="96"
   inkscape:export-ydpi="96"
   xmlns:inkscape="http://www.inkscape.org/namespaces/inkscape"
   xmlns:sodipodi="http://sodipodi.sourceforge.net/DTD/sodipodi-0.dtd"
   xmlns="http://www.w3.org/2000/svg"
   xmlns:svg="http://www.w3.org/2000/svg">
  <sodipodi:namedview
     id="namedview1"
     pagecolor="#ffffff"
     bordercolor="#000000"
     borderopacity="0.25"
     inkscape:showpageshadow="2"
     inkscape:pageopacity="0.0"
     inkscape:pagecheckerboard="0"
     inkscape:deskcolor="#d1d1d1"
     inkscape:document-units="mm"
     inkscape:zoom="11.01807"
     inkscape:cx="27.72718"
     inkscape:cy="28.54402"
     inkscape:window-width="1920"
     inkscape:window-height="991"
     inkscape:window-x="-9"
     inkscape:window-y="-9"
     inkscape:window-maximized="1"
     inkscape:current-layer="layer1">
    <inkscape:page
       x="0"
       y="0"
       width="16.933332"
       height="16.933332"
       id="page2"
       margin="0"
       bleed="0" />
  </sodipodi:namedview>
  <defs
     id="defs1">
    <inkscape:path-effect
       effect="spiro"
       id="path-effect24"
       is_visible="true"
       lpeversion="1" />
    <inkscape:path-effect
       effect="spiro"
       id="path-effect1"
       is_visible="true"
       lpeversion="1" />
    <inkscape:path-effect
       effect="spiro"
       id="path-effect24-4"
       is_visible="true"
       lpeversion="1" />
  </defs>
  <g
     inkscape:label="Capa 1"
     inkscape:groupmode="layer"
     id="layer1">
    <path
       style="fill:none;stroke:#000000;stroke-width:0.165;stroke-dasharray:none;stroke-opacity:1"
       d="M 2.2572768,1.9451002 C 1.6223159,3.3973374 1.5890972,5.1020219 2.1669989,6.5778938 2.7449005,8.0537657 3.9268053,9.2826488 5.3790425,9.9176097 6.8312797,10.552571 8.5359642,10.585789 10.011836,10.007888 11.487708,9.429986 12.716591,8.2480812 13.351552,6.795844 13.986513,5.3436068 14.019732,3.6389223 13.44183,2.1630504 12.863928,0.68717847 11.682024,-0.54170462 10.229786,-1.1766655 8.7775491,-1.8116264 7.0728646,-1.8448451 5.5969927,-1.2669434 4.1211208,-0.68904178 2.8922377,0.49286297 2.2572768,1.9451002 Z"
       id="path1"
       inkscape:path-effect="#path-effect1"
       inkscape:original-d="M 2.2572768,1.9451002 C -1.440815,0.32818564 9.6454559,5.1709248 13.351552,6.795844 17.057649,8.4207632 5.9553686,3.5620147 2.2572768,1.9451002 Z"
       transform="matrix(1.0432594,0,0,1.0174524,0.4068065,3.4417148)" />
  </g>
  <g
     inkscape:groupmode="layer"
     id="layer2"
     inkscape:label="Capa 2">
    <path
       style="fill:#4d4d4d;stroke:#000000;stroke-width:0.413;stroke-linecap:butt;stroke-linejoin:round;stroke-dasharray:none;stroke-dashoffset:0;paint-order:markers fill stroke"
       d="m 4.0154543,5.8496523 1.4868674,-0.03051 0.5755616,3.8746702 H 11.114047 L 11.761553,6.5208551 6.1738102,6.5513642 H 5.5742669 l -0.047963,0.03051"
       id="path23" />
    <path
       style="fill:#ffaaaa;stroke:#000000;stroke-width:0.1"
       d="m 6.9159116,10.349854 c -0.097444,0.09116 -0.1567626,0.221868 -0.161208,0.35523 -0.00445,0.133362 0.046037,0.267733 0.1371945,0.365178 0.091158,0.09744 0.2218685,0.156762 0.3552304,0.161208 0.1333619,0.0044 0.2677326,-0.04604 0.3651771,-0.137195 0.097444,-0.09116 0.1567626,-0.221868 0.161208,-0.35523 0.00445,-0.133362 -0.046037,-0.267733 -0.1371945,-0.365178 -0.091158,-0.09744 -0.2218685,-0.156762 -0.3552304,-0.161208 -0.1333619,-0.0044 -0.2677326,0.04604 -0.3651771,0.137195 z"
       id="path24"
       inkscape:path-effect="#path-effect24"
       inkscape:original-d="M 6.9159116,10.349854 C 6.6837803,10.101713 7.3801742,10.83813 7.6123056,11.094275 7.8444369,11.35042 7.148043,10.597994 6.9159116,10.349854 Z"
       transform="translate(0.19210866,0.16809508)" />
    <path
       style="fill:#ffaaaa;stroke:#000000;stroke-width:0.1"
       d="m 6.9159116,10.349854 c -0.097444,0.09116 -0.1567626,0.221868 -0.161208,0.35523 -0.00445,0.133362 0.046037,0.267733 0.1371945,0.365178 0.091158,0.09744 0.2218685,0.156762 0.3552304,0.161208 0.1333619,0.0044 0.2677326,-0.04604 0.3651771,-0.137195 0.097444,-0.09116 0.1567626,-0.221868 0.161208,-0.35523 0.00445,-0.133362 -0.046037,-0.267733 -0.1371945,-0.365178 -0.091158,-0.09744 -0.2218685,-0.156762 -0.3552304,-0.161208 -0.1333619,-0.0044 -0.2677326,0.04604 -0.3651771,0.137195 z"
       id="path24-8"
       inkscape:path-effect="#path-effect24-4"
       inkscape:original-d="M 6.9159116,10.349854 C 6.6837803,10.101713 7.3801742,10.83813 7.6123056,11.094275 7.8444369,11.35042 7.148043,10.597994 6.9159116,10.349854 Z"
       transform="translate(2.8214387,0.1808075)" />
    <path
       style="fill:#cccccc;stroke:#000000;stroke-width:0.789921;stroke-dasharray:none"
       d="m 27.424792,42.649145 c -1.117344,-0.567772 -1.220708,-2.184064 -0.183566,-2.870412 1.068649,-0.707199 2.475311,-0.03522 2.597946,1.241069 0.123513,1.285425 -1.257335,2.217289 -2.41438,1.629343 z"
       id="path25"
       transform="scale(0.26458333)" />
    <path
       style="fill:#cccccc;stroke:#000000;stroke-width:0.789921;stroke-dasharray:none"
       d="m 37.643533,42.803295 c -0.53647,-0.196148 -0.777814,-0.392301 -0.990996,-0.805434 -0.762929,-1.478509 0.830814,-3.050533 2.271679,-2.240722 0.513769,0.288755 0.86357,0.873527 0.86357,1.443653 0,1.101624 -1.154452,1.964401 -2.144253,1.602503 z"
       id="path26"
       transform="scale(0.26458333)" />
    <path
       style="fill:#808080;stroke:#000000;stroke-width:0.034303"
       d="m 23.190561,36.281309 c -0.07293,-0.216029 -1.670483,-11.181002 -1.634297,-11.217188 0.03964,-0.03964 22.487802,-0.180744 22.539223,-0.141677 0.01733,0.01317 -0.493195,2.599768 -1.1345,5.748003 l -1.166008,5.724065 -9.283058,1.23e-4 c -7.345601,9.8e-5 -9.291053,-0.02356 -9.32136,-0.113326 z"
       id="path27"
       transform="scale(0.26458333)" />
    <path
       style="fill:#ffaaaa;stroke:#000000;stroke-width:0.0716933;stroke-linecap:butt;stroke-linejoin:round;stroke-dasharray:none;stroke-dashoffset:0;paint-order:markers fill stroke"
       d="m 23.354505,36.233198 c -0.135274,-0.08603 -0.24708,-0.751236 -0.979661,-5.828599 -0.327707,-2.271269 -0.631429,-4.374632 -0.674938,-4.67414 -0.04351,-0.299508 -0.06266,-0.562086 -0.04256,-0.583507 0.05128,-0.05464 22.276063,-0.212633 22.329953,-0.158743 0.03771,0.03771 -1.721813,8.939967 -2.115473,10.70316 l -0.13678,0.61263 -9.136794,-0.0014 c -5.025238,-7.64e-4 -9.184925,-0.032 -9.24375,-0.06941 z"
       id="path28"
       transform="scale(0.26458333)" />
    <path
       style="fill:#ffaaaa;stroke:#000000;stroke-width:0.0716933;stroke-linecap:butt;stroke-linejoin:round;stroke-dasharray:none;stroke-dashoffset:0;paint-order:markers fill stroke"
       d="m 27.719777,42.296985 c -0.246814,-0.09985 -0.658461,-0.592809 -0.728693,-0.872638 -0.18161,-0.72359 0.445871,-1.490685 1.218494,-1.489609 0.549126,7.64e-4 1.195983,0.663272 1.195983,1.224921 0,0.790139 -0.953631,1.433514 -1.685784,1.137326 z"
       id="path29"
       transform="scale(0.26458333)" />
    <path
       style="fill:#ffaaaa;stroke:#000000;stroke-width:0.0716933;stroke-linecap:butt;stroke-linejoin:round;stroke-dasharray:none;stroke-dashoffset:0;paint-order:markers fill stroke"
       d="m 37.617062,42.294365 c -0.458716,-0.227066 -0.677743,-0.589943 -0.677743,-1.122862 0,-0.333536 0.05468,-0.476229 0.281501,-0.734561 0.507937,-0.578508 1.256956,-0.582496 1.783289,-0.0095 0.567238,0.617534 0.319827,1.585216 -0.492027,1.924431 -0.387698,0.16199 -0.461111,0.157272 -0.89502,-0.05752 z"
       id="path30"
       transform="scale(0.26458333)" />
    <path
       style="fill:#ffd5d5;stroke:#000000;stroke-width:0.0716933;stroke-linecap:butt;stroke-linejoin:round;stroke-dasharray:none;stroke-dashoffset:0;paint-order:markers fill stroke"
       d="m 18.560419,23.687123 -1.63368,-0.803411 1.585467,0.01659 1.585467,0.01659 0.109373,0.6807 c 0.135641,0.844183 0.139632,0.909371 0.05512,0.900268 -0.03744,-0.004 -0.803226,-0.368868 -1.70175,-0.810744 z"
       id="path31"
       transform="scale(0.26458333)" />
    <path
       style="fill:#ffd5d5;stroke:#000000;stroke-width:0.0716933;stroke-linecap:butt;stroke-linejoin:round;stroke-dasharray:none;stroke-dashoffset:0;paint-order:markers fill stroke"
       d="m 23.540375,36.150608 c -0.260018,-0.05098 -0.27896,-0.157258 -1.339566,-7.515829 l -0.484012,-3.35812 1.288134,-0.05598 c 0.708474,-0.03079 5.700992,-0.08645 11.094484,-0.123678 l 9.80635,-0.0677 -0.09031,0.486718 c -0.262329,1.413742 -1.991033,10.056317 -2.070552,10.351629 l -0.09306,0.345589 -8.959051,-0.01236 c -4.927479,-0.0068 -9.046066,-0.02942 -9.152416,-0.05027 z"
       id="path32"
       transform="scale(0.26458333)" />
    <path
       style="fill:#ffd5d5;stroke:#000000;stroke-width:0.0716933;stroke-linecap:butt;stroke-linejoin:round;stroke-dasharray:none;stroke-dashoffset:0;paint-order:markers fill stroke"
       d="m 27.442957,41.897681 c -0.456086,-0.456086 -0.516078,-0.813039 -0.218632,-1.300866 0.485698,-0.796573 1.506039,-0.706883 1.963638,0.172607 0.189284,0.363798 0.15582,0.660332 -0.110195,0.976473 -0.558253,0.663445 -1.075159,0.711438 -1.634811,0.151786 z"
       id="path33"
       transform="scale(0.26458333)" />
    <path
       style="fill:#ffd5d5;stroke:#000000;stroke-width:0.0716933;stroke-linecap:butt;stroke-linejoin:round;stroke-dasharray:none;stroke-dashoffset:0;paint-order:markers fill stroke"
       d="m 37.644355,42.198064 c -0.396953,-0.209588 -0.614276,-0.579146 -0.614276,-1.044576 0,-0.265624 0.07116,-0.404007 0.352362,-0.685207 0.501798,-0.501798 0.971718,-0.501798 1.473515,0 0.282789,0.282789 0.352363,0.418907 0.352363,0.689386 0,0.450401 -0.24412,0.843731 -0.654395,1.054369 -0.412938,0.212007 -0.483628,0.210921 -0.909569,-0.01397 z"
       id="path34"
       transform="scale(0.26458333)" />
    <path
       style="fill:#ffd5d5;stroke:#000000;stroke-width:0.0716933;stroke-linecap:butt;stroke-linejoin:round;stroke-dasharray:none;stroke-dashoffset:0;paint-order:markers fill stroke"
       d="m 18.787319,23.68361 -1.40678,-0.711772 1.322438,-0.0048 1.322438,-0.0048 0.108024,0.694835 c 0.05941,0.38216 0.09737,0.704608 0.08434,0.716552 -0.01302,0.01194 -0.656733,-0.298582 -1.430462,-0.690056 z"
       id="path35"
       transform="scale(0.26458333)" />
  </g>
</svg>
