<?xml version="1.0" encoding="UTF-8" standalone="no"?>
<!-- Created with Inkscape (http://www.inkscape.org/) -->

<svg
   width="63.999996"
   height="63.999996"
   viewBox="0 0 16.933332 16.933332"
   version="1.1"
   id="svg1"
   xmlns="http://www.w3.org/2000/svg"
   xmlns:svg="http://www.w3.org/2000/svg">
  <defs
     id="defs1" />
  <g
     id="layer1">
    <path
       style="fill:none;stroke:#000000;stroke-width:0.165;stroke-dasharray:none;stroke-opacity:1"
       d="M 2.2572768,1.9451002 C 1.6223159,3.3973374 1.5890972,5.1020219 2.1669989,6.5778938 2.7449005,8.0537657 3.9268053,9.2826488 5.3790425,9.9176097 6.8312797,10.552571 8.5359642,10.585789 10.011836,10.007888 11.487708,9.429986 12.716591,8.2480812 13.351552,6.795844 13.986513,5.3436068 14.019732,3.6389223 13.44183,2.1630504 12.863928,0.68717847 11.682024,-0.54170462 10.229786,-1.1766655 8.7775491,-1.8116264 7.0728646,-1.8448451 5.5969927,-1.2669434 4.1211208,-0.68904178 2.8922377,0.49286297 2.2572768,1.9451002 Z"
       id="path1"
       transform="matrix(1.0432594,0,0,1.0174524,0.4068065,3.4417148)" />
  </g>
  <g
     id="layer3">
    <path
       style="fill:#cccccc;stroke:#000000;stroke-width:0.509;stroke-linecap:round;stroke-linejoin:round;stroke-dasharray:none;stroke-dashoffset:0;paint-order:markers fill stroke"
       d="M 7.0039617,5.3270128 C 6.2435318,4.8107209 4.8507482,4.7226714 4.2840945,5.1203836 3.7174409,5.5180958 3.9769261,6.4015704 4.9014428,7.9864562 5.8259596,9.5713419 7.4155043,11.857639 8.8190004,11.784445 10.222497,11.711252 11.439861,9.2785811 12.06021,7.653666 12.68056,6.0287509 12.703879,5.2116205 12.18893,4.8615622 11.673981,4.5115038 10.620772,4.6285211 9.8363284,5.1848358 9.0518848,5.7411504 8.5362106,6.7367619 8.2143373,6.7623006 7.8924641,6.7878392 7.7643916,5.8433046 7.0039617,5.3270128 Z"
       id="path36"
       transform="translate(0.36020374,0.43224449)" />
  </g>
</svg>
