<?xml version="1.0" encoding="UTF-8" standalone="no"?>
<!-- Created with Inkscape (http://www.inkscape.org/) -->

<svg
   width="63.999996"
   height="63.999996"
   viewBox="0 0 16.933332 16.933332"
   version="1.1"
   id="svg1"
   inkscape:version="1.4 (86a8ad7, 2024-10-11)"
   sodipodi:docname="dibujo.svg"
   inkscape:export-filename="DAW 24-25\DIW\T.O2. prueba\imagenes\usuarioclaro.png"
   inkscape:export-xdpi="96"
   inkscape:export-ydpi="96"
   xmlns:inkscape="http://www.inkscape.org/namespaces/inkscape"
   xmlns:sodipodi="http://sodipodi.sourceforge.net/DTD/sodipodi-0.dtd"
   xmlns="http://www.w3.org/2000/svg"
   xmlns:svg="http://www.w3.org/2000/svg">
  <sodipodi:namedview
     id="namedview1"
     pagecolor="#ffffff"
     bordercolor="#000000"
     borderopacity="0.25"
     inkscape:showpageshadow="2"
     inkscape:pageopacity="0.0"
     inkscape:pagecheckerboard="0"
     inkscape:deskcolor="#d1d1d1"
     inkscape:document-units="mm"
     inkscape:zoom="11.01807"
     inkscape:cx="27.72718"
     inkscape:cy="28.54402"
     inkscape:window-width="1920"
     inkscape:window-height="991"
     inkscape:window-x="-9"
     inkscape:window-y="-9"
     inkscape:window-maximized="1"
     inkscape:current-layer="layer1">
    <inkscape:page
       x="0"
       y="0"
       width="16.933332"
       height="16.933332"
       id="page2"
       margin="0"
       bleed="0" />
  </sodipodi:namedview>
  <defs
     id="defs1">
    <inkscape:path-effect
       effect="spiro"
       id="path-effect9"
       is_visible="true"
       lpeversion="1" />
    <inkscape:path-effect
       effect="bspline"
       id="path-effect7"
       is_visible="true"
       lpeversion="1.3"
       weight="33.333333"
       steps="2"
       helper_size="0"
       apply_no_weight="true"
       apply_with_weight="true"
       only_selected="false"
       uniform="false" />
    <inkscape:path-effect
       effect="bspline"
       id="path-effect6"
       is_visible="true"
       lpeversion="1.3"
       weight="33.333333"
       steps="2"
       helper_size="0"
       apply_no_weight="true"
       apply_with_weight="true"
       only_selected="false"
       uniform="false" />
    <inkscape:path-effect
       effect="spiro"
       id="path-effect5"
       is_visible="true"
       lpeversion="1" />
    <inkscape:path-effect
       effect="spiro"
       id="path-effect1"
       is_visible="true"
       lpeversion="1" />
    <inkscape:path-effect
       effect="spiro"
       id="path-effect9-4"
       is_visible="true"
       lpeversion="1" />
  </defs>
  <g
     inkscape:label="Capa 1"
     inkscape:groupmode="layer"
     id="layer1">
    <path
       style="fill:none;stroke:#000000;stroke-width:0.165;stroke-dasharray:none;stroke-opacity:1"
       d="M 2.2572768,1.9451002 C 1.6223159,3.3973374 1.5890972,5.1020219 2.1669989,6.5778938 2.7449005,8.0537657 3.9268053,9.2826488 5.3790425,9.9176097 6.8312797,10.552571 8.5359642,10.585789 10.011836,10.007888 11.487708,9.429986 12.716591,8.2480812 13.351552,6.795844 13.986513,5.3436068 14.019732,3.6389223 13.44183,2.1630504 12.863928,0.68717847 11.682024,-0.54170462 10.229786,-1.1766655 8.7775491,-1.8116264 7.0728646,-1.8448451 5.5969927,-1.2669434 4.1211208,-0.68904178 2.8922377,0.49286297 2.2572768,1.9451002 Z"
       id="path1"
       inkscape:path-effect="#path-effect1"
       inkscape:original-d="M 2.2572768,1.9451002 C -1.440815,0.32818564 9.6454559,5.1709248 13.351552,6.795844 17.057649,8.4207632 5.9553686,3.5620147 2.2572768,1.9451002 Z"
       transform="matrix(1.0432594,0,0,1.0174524,0.4068065,3.4417148)" />
    <path
       style="fill:none;stroke:#000000;stroke-width:0.165;stroke-dasharray:none;stroke-opacity:1"
       d="M 6.1234637,3.6740782 C 5.8217001,4.0890031 5.6926039,4.6255979 5.7726211,5.1323732 5.8526382,5.6391485 6.1407832,6.1098631 6.5557082,6.4116266 6.9706331,6.7133902 7.5072278,6.8424864 8.0140031,6.7624693 8.5207784,6.6824521 8.991493,6.3943071 9.2932566,5.9793822 9.5950202,5.5644573 9.7241164,5.0278625 9.6440992,4.5210872 9.5640821,4.0143119 9.2759371,3.5435973 8.8610122,3.2418337 8.4460872,2.9400702 7.9094925,2.810974 7.4027172,2.8909911 6.8959419,2.9710083 6.4252273,3.2591533 6.1234637,3.6740782 Z"
       id="path5"
       inkscape:path-effect="#path-effect5"
       inkscape:original-d="M 6.1234637,3.6740782 C 5.066866,2.9056435 8.2446637,5.2269567 9.2932566,5.9793822 10.34185,6.731808 7.1800613,4.4425129 6.1234637,3.6740782 Z"
       transform="matrix(1.2350926,0,0,1.2472593,-0.99571665,0.17531998)" />
    <path
       style="fill:none;stroke:#000000;stroke-width:0.165;stroke-dasharray:none;stroke-opacity:1"
       d="M 7.2761157,8.1886318 C 6.4189953,8.6180985 5.5618752,9.047565 5.0575898,9.759968 4.5533045,10.472371 4.4018544,11.46771 4.2504042,12.463049"
       id="path6"
       inkscape:path-effect="#path-effect6"
       inkscape:original-d="M 7.2761157,8.1886318 C 6.4189953,8.6180984 5.5618752,9.047565 4.7047547,9.4770317 4.5533045,10.472371 4.4018544,11.46771 4.2504042,12.463049"
       sodipodi:nodetypes="ccc" />
    <path
       style="fill:none;stroke:#000000;stroke-width:0.165;stroke-dasharray:none;stroke-opacity:1"
       d="m 9.9176098,8.2126454 c 0.7831912,0.4579137 1.5663822,0.9158272 1.9946242,1.6682523 0.428242,0.7524253 0.501535,1.7993633 0.574829,2.8463013"
       id="path7"
       inkscape:path-effect="#path-effect7"
       inkscape:original-d="m 9.9176098,8.2126454 c 0.7831912,0.4579136 1.5663822,0.9158269 2.3495722,1.3737403 0.07329,1.0469373 0.146587,2.0938753 0.219881,3.1408133"
       sodipodi:nodetypes="ccc" />
    <path
       style="fill:none;stroke:#000000;stroke-width:0.1;stroke-dasharray:none;stroke-opacity:1"
       d="m 7.8524417,6.5797218 c -0.1508818,-0.056581 -0.3241266,-0.0507 -0.4708247,0.01598 -0.1466982,0.066681 -0.2650429,0.1933415 -0.3216236,0.3442233 -0.056581,0.1508817 -0.0507,0.3241266 0.015981,0.4708247 0.066681,0.1466981 0.1933414,0.2650428 0.3442232,0.3216235 0.1508818,0.056581 0.3241266,0.0507 0.4708247,-0.01598 C 8.03772,7.6497123 8.1560647,7.5230518 8.2126454,7.37217 8.269226,7.2212883 8.2633459,7.0480434 8.1966649,6.9013453 8.129984,6.7546472 8.0033235,6.6363025 7.8524417,6.5797218 Z"
       id="path9"
       inkscape:path-effect="#path-effect9"
       inkscape:original-d="M 7.8524417,6.5797218 C 7.9244824,6.2435316 7.4842334,7.3961836 7.4201971,7.7323737 7.3561611,8.0685639 7.7804009,6.9159119 7.8524417,6.5797218 Z"
       transform="translate(-0.19210867,-1.2727199)"
       sodipodi:nodetypes="sss" />
    <path
       style="fill:none;stroke:#000000;stroke-width:0.1;stroke-dasharray:none;stroke-opacity:1"
       d="m 8.236659,5.9073415 c -0.1603119,-0.03772 -0.3351647,-0.00921 -0.4751948,0.077471 -0.14003,0.086685 -0.2435126,0.2304819 -0.2812331,0.3907938 -0.03772,0.1603118 -0.00921,0.3351647 0.077471,0.4751947 0.086685,0.14003 0.2304819,0.2435127 0.3907938,0.2812331 0.1603119,0.03772 0.3351647,0.00921 0.4751948,-0.077471 C 8.5637208,6.9678779 8.6672034,6.8240812 8.7049239,6.6637693 8.7426443,6.5034575 8.714138,6.3286046 8.6274528,6.1885746 8.5407675,6.0485446 8.3969709,5.9450619 8.236659,5.9073415 Z"
       id="path9-5"
       inkscape:path-effect="#path-effect9-4"
       inkscape:original-d="M 8.236659,5.9073415 C 8.6682446,6.1552501 14.100537,-2.0020121 7.948496,7.1320342 7.5562533,7.714404 7.041705,5.2209436 8.236659,5.9073415 Z"
       transform="translate(1.5523773,-0.69766597)"
       sodipodi:nodetypes="sss" />
    <path
       style="fill:none;stroke:#000000;stroke-width:0.1;stroke-dasharray:none;stroke-opacity:1"
       d="M 6.8678847,5.8353006 6.1955044,5.5471377"
       id="path10"
       sodipodi:nodetypes="cc" />
    <path
       style="fill:none;stroke:#000000;stroke-width:0.1;stroke-dasharray:none;stroke-opacity:1"
       d="M 10.181759,5.5711513 10.662031,5.1629204"
       id="path11" />
    <path
       style="fill:none;stroke:#000000;stroke-width:0.1;stroke-dasharray:none;stroke-opacity:1"
       d="M 9.101148,5.7152328 8.548563,5.4871099 8.0445503,5.7392463"
       id="path12"
       sodipodi:nodetypes="ccc" />
    <path
       style="fill:none;stroke:#000000;stroke-width:0.034303"
       d="M 47.475648,46.903097 C 47.450065,46.739286 47.404109,46.23768 47.373523,45.788418 47.342936,45.339156 47.238979,44.345087 47.142509,43.579375 46.372352,37.466479 44.691824,34.930957 39.24562,31.66482 l -1.051819,-0.630785 0.741338,-0.745828 c 0.407737,-0.410206 0.912705,-1.000348 1.122151,-1.311428 2.292988,-3.405657 2.294134,-7.714301 0.003,-11.117045 -0.49455,-0.734482 -1.69,-1.928533 -2.429099,-2.426258 -2.805366,-1.88919 -6.434981,-2.190316 -9.415916,-0.781178 -1.133074,0.535623 -1.853686,1.039679 -2.722329,1.904221 -1.237876,1.232036 -2.078624,2.710046 -2.552722,4.487616 -0.205043,0.768783 -0.23347,1.055294 -0.235337,2.371944 -0.0019,1.341045 0.02326,1.592385 0.240755,2.40514 0.269446,1.006872 0.849051,2.28187 1.432516,3.151205 0.210393,0.313475 0.739948,0.925758 1.176791,1.360628 l 0.794259,0.790673 -1.201733,0.628783 c -4.70783,2.463278 -6.74998,4.607581 -7.992137,8.391919 -0.417253,1.271198 -0.839648,3.095296 -1.096776,4.736392 -0.08603,0.549097 -0.183851,1.051354 -0.217374,1.116125 -0.06722,0.129879 -1.071292,-0.926633 -2.138916,-2.250625 -1.929419,-2.392732 -3.469384,-5.519475 -4.2070634,-8.542011 -0.490618,-2.01024 -0.5991727,-2.986705 -0.5991727,-5.389649 0,-2.403532 0.1085317,-3.379329 0.5996907,-5.391755 1.0493564,-4.299528 3.5594474,-8.454956 6.8856464,-11.399111 5.836942,-5.1665155 13.281948,-7.1532754 20.917914,-5.5821143 4.396166,0.904546 8.548302,3.1497663 11.754387,6.3560483 3.009913,3.010098 5.112352,6.689856 6.071926,10.627283 0.408714,1.67708 0.562251,2.845373 0.619423,4.713286 0.06016,1.965683 -0.04809,3.264189 -0.433434,5.199252 -0.680167,3.415527 -2.267951,6.771021 -4.536978,9.588083 -0.786031,0.975879 -2.467843,2.716646 -2.970319,3.07444 l -0.282088,0.200864 z"
       id="path2"
       transform="scale(0.26458333)" />
    <path
       style="fill:#333333;stroke:#000000;stroke-width:0.034303"
       d="m 30.359219,52.635676 c -4.890069,-0.431565 -9.227965,-2.158287 -12.952931,-5.155979 -0.829535,-0.667576 -0.922831,-0.772078 -0.885473,-0.991838 0.02297,-0.135102 0.145412,-0.858271 0.272099,-1.60704 0.48275,-2.853234 1.056789,-4.893929 1.783306,-6.339608 1.268101,-2.523365 3.362261,-4.339562 7.335759,-6.362069 l 1.1345,-0.577459 0.95298,0.468555 c 0.524139,0.257705 1.340979,0.570359 1.8152,0.694787 0.761156,0.199716 1.048391,0.226216 2.45052,0.226083 1.940536,-1.84e-4 2.594226,-0.147337 4.216662,-0.949214 l 1.085442,-0.536472 1.183558,0.712184 c 2.003852,1.205781 3.093987,2.026662 4.269398,3.214892 0.809985,0.818819 1.211096,1.308209 1.565043,1.909488 1.111573,1.888318 1.686019,4.199522 2.064097,8.304609 0.210795,2.288774 0.243629,2.106668 -0.475231,2.635735 -2.351735,1.730835 -5.736416,3.242905 -8.614301,3.848351 -2.36517,0.49758 -5.106332,0.689824 -7.200628,0.504995 z"
       id="path3"
       transform="scale(0.26458333)" />
    <path
       style="fill:#4d4d4d;stroke:#000000;stroke-width:0.034303"
       d="m 30.853825,32.0934 c -1.339708,-0.256403 -2.970627,-0.902641 -3.357853,-1.33052 -0.08798,-0.09722 -0.217419,-0.176761 -0.28764,-0.176761 -0.219105,0 -1.798541,-1.646278 -2.244981,-2.339988 -0.658684,-1.023513 -1.117993,-2.171082 -1.324276,-3.308662 -0.172585,-0.951747 -0.08091,-3.282033 0.137724,-3.500663 0.02298,-0.02298 0.418952,0.120378 0.879942,0.318568 l 0.838163,0.360347 0.145182,0.582109 c 0.191096,0.766201 0.370179,1.086659 0.824655,1.475674 0.938263,0.803118 2.399984,0.806087 3.333805,0.0068 0.48626,-0.416221 0.837961,-1.145943 0.878641,-1.82304 0.03567,-0.593724 0.02723,-0.585591 1.113575,-1.072429 l 0.569322,-0.255137 0.746698,0.301475 0.746697,0.301475 0.01548,0.505999 c 0.02841,0.9287 0.554362,1.747869 1.416401,2.206046 0.57093,0.303452 1.753469,0.294162 2.365761,-0.01858 0.494445,-0.252552 0.870593,-0.641816 1.16681,-1.207495 0.162071,-0.309502 0.198705,-0.522859 0.19047,-1.109287 -0.0056,-0.399344 -0.02418,-0.789951 -0.04128,-0.868015 -0.03147,-0.143711 1.160565,-1.237951 1.250556,-1.14796 0.0969,0.0969 0.482171,1.346177 0.577814,1.873621 0.13982,0.771053 0.122848,2.37311 -0.03372,3.182814 -0.139007,0.718903 -0.50036,1.7984 -0.805101,2.40514 -0.546405,1.087895 -1.785722,2.499483 -2.817981,3.209697 -0.666957,0.458878 -2.039248,1.083321 -2.831413,1.288396 -0.932073,0.241294 -2.576902,0.308169 -3.453454,0.140408 z"
       id="path4"
       transform="scale(0.26458333)" />
    <path
       style="fill:#4d4d4d;stroke:#000000;stroke-width:0.034303"
       d="m 31.266819,32.102828 c -0.02496,-0.02646 -0.229169,-0.06877 -0.4538,-0.09403 -0.224631,-0.02526 -0.735156,-0.155546 -1.1345,-0.289525 -0.399344,-0.13398 -0.766922,-0.252193 -0.81684,-0.262696 -0.04992,-0.01051 -0.304903,-0.129518 -0.566633,-0.264474 -0.261731,-0.134957 -0.504926,-0.255039 -0.540435,-0.266848 -0.03551,-0.01181 -0.156373,-0.103158 -0.268588,-0.202994 -0.431301,-0.383723 -0.831122,-0.6807 -0.91643,-0.6807 -0.04891,0 -0.193877,-0.153157 -0.322143,-0.34035 -0.128265,-0.187192 -0.440007,-0.559092 -0.69276,-0.826442 -0.252753,-0.26735 -0.459551,-0.514911 -0.459551,-0.550136 0,-0.03522 -0.09189,-0.162681 -0.20421,-0.283238 -0.112315,-0.120557 -0.193452,-0.23064 -0.180303,-0.24463 0.01315,-0.01399 -0.07929,-0.229092 -0.205427,-0.478004 -0.126133,-0.248912 -0.232813,-0.483476 -0.237066,-0.521253 -0.0043,-0.03778 -0.05279,-0.150371 -0.107869,-0.250207 -0.05507,-0.09984 -0.109164,-0.235762 -0.120199,-0.302057 -0.01104,-0.0663 -0.0498,-0.188822 -0.08614,-0.27228 -0.03634,-0.08346 -0.07622,-0.199405 -0.08861,-0.257658 -0.01239,-0.05825 -0.06612,-0.30915 -0.119392,-0.557547 -0.184652,-0.861004 -0.12493,-3.476479 0.08231,-3.604558 0.03885,-0.02401 0.254369,0.0351 0.478928,0.131355 0.224558,0.09626 0.432458,0.150843 0.461999,0.121302 0.02954,-0.02954 0.05371,-0.01049 0.05371,0.04234 0,0.08142 0.421164,0.245649 0.537207,0.209483 0.02091,-0.0065 0.1357,0.326471 0.25508,0.739977 0.248887,0.862093 0.513864,1.255908 1.091525,1.622249 0.839312,0.532277 1.934318,0.546371 2.805021,0.0361 0.388186,-0.227493 0.823798,-0.713336 0.779457,-0.869339 -0.01248,-0.04391 0.02056,-0.07983 0.07343,-0.07983 0.05286,0 0.07303,-0.03735 0.04481,-0.08301 -0.02822,-0.04565 -0.01141,-0.09671 0.03735,-0.11345 0.04876,-0.01674 0.100065,-0.132547 0.114016,-0.257342 0.01395,-0.124795 0.05363,-0.248272 0.08819,-0.274393 0.03455,-0.02612 0.07295,-0.243134 0.08533,-0.48225 l 0.0225,-0.434755 0.738141,-0.357281 c 0.405977,-0.196504 0.797599,-0.357281 0.87027,-0.357281 0.124283,0 1.308775,0.470928 1.390797,0.55295 0.02086,0.02086 0.05998,0.276708 0.08694,0.568548 0.02696,0.29184 0.08794,0.577522 0.135515,0.63485 0.08635,0.104047 0.101941,0.155455 0.101941,0.336159 0,0.20285 1.094624,1.167846 1.430547,1.261139 0.417873,0.116051 1.655293,0.125748 1.655293,0.01297 0,-0.04524 0.07147,-0.06387 0.15883,-0.04139 0.2724,0.0701 0.990678,-0.468715 1.35371,-1.015481 0.325147,-0.489708 0.34189,-0.552109 0.37256,-1.388558 0.03767,-1.027341 0.135837,-1.335916 0.481934,-1.514889 0.139692,-0.07224 0.312784,-0.215287 0.384647,-0.317886 0.116044,-0.165676 0.145865,-0.17134 0.266569,-0.05064 0.07475,0.07475 0.232851,0.474986 0.351338,0.889416 0.191451,0.669631 0.215155,0.935363 0.212946,2.387188 l -0.0025,1.63368 -0.381477,1.08912 c -0.209813,0.599016 -0.392484,1.129962 -0.405934,1.17988 -0.01345,0.04992 -0.04488,0.111181 -0.06984,0.13614 -0.02496,0.02496 -0.237929,0.333002 -0.473265,0.684539 -0.235336,0.351537 -0.53144,0.736445 -0.65801,0.855351 -0.126569,0.118905 -0.230125,0.248759 -0.230125,0.288564 0,0.0398 -0.145425,0.206264 -0.323166,0.369909 -0.711812,0.655364 -0.872031,0.796717 -0.903045,0.796717 -0.06362,0 -0.998496,0.590862 -1.052936,0.665478 -0.03054,0.04186 -0.08295,0.06937 -0.116455,0.06114 -0.03351,-0.0082 -0.361637,0.110214 -0.72917,0.263218 -0.367532,0.153004 -0.907336,0.342233 -1.199565,0.420508 -0.514851,0.137907 -2.844781,0.294319 -2.936463,0.197129 z"
       id="path8"
       transform="scale(0.26458333)" />
    <path
       style="fill:#999999;stroke:#000000;stroke-width:0.034303"
       d="m 24.664029,21.255054 c -0.411823,-0.180248 -0.74877,-0.361281 -0.74877,-0.402297 0,-0.281007 0.655228,-1.674432 1.100133,-2.339572 1.207463,-1.805178 3.1404,-3.148549 5.31175,-3.691613 0.960051,-0.240113 2.932086,-0.212907 3.934757,0.05428 1.699008,0.452749 3.071791,1.255943 4.20443,2.459945 0.672447,0.714815 1.588872,2.041669 1.483149,2.147392 -0.02942,0.02942 -0.32322,0.283202 -0.652892,0.563962 l -0.599402,0.510471 -0.433665,-0.417998 c -0.507612,-0.489272 -1.087554,-0.716989 -1.826005,-0.716989 -0.610993,0 -0.998479,0.119649 -1.507197,0.465395 -0.318838,0.216695 -0.86115,0.884259 -0.960515,1.182356 -0.01616,0.04848 -0.374442,-0.05737 -0.796179,-0.235238 -0.421736,-0.177866 -0.815165,-0.323393 -0.874286,-0.323393 -0.05912,0 -0.45592,0.183789 -0.881777,0.40842 -0.425857,0.224631 -0.796525,0.40842 -0.823708,0.40842 -0.02718,0 -0.130529,-0.158979 -0.229658,-0.353288 -0.384659,-0.753994 -1.300884,-1.280392 -2.228595,-1.280392 -0.995812,0 -1.840896,0.523641 -2.274119,1.409118 -0.133695,0.273263 -0.289342,0.492769 -0.345882,0.487791 -0.05654,-0.005 -0.439745,-0.156526 -0.851569,-0.336774 z"
       id="path13"
       transform="scale(0.26458333)" />
    <path
       style="fill:#999999;stroke:#000000;stroke-width:0.034303"
       d="m 27.420843,24.190343 c -0.773264,-0.275629 -1.345496,-1.106715 -1.345496,-1.954144 0,-1.769906 2.093029,-2.736835 3.389268,-1.565761 0.513058,0.463516 0.728199,0.929536 0.725133,1.570713 -0.0069,1.434882 -1.420317,2.429894 -2.768905,1.949192 z"
       id="path14"
       transform="scale(0.26458333)" />
    <path
       style="fill:#999999;stroke:#000000;stroke-width:0.034303"
       d="m 35.57421,23.927342 c -0.820763,-0.382197 -1.282801,-1.130697 -1.182383,-1.915452 0.03212,-0.251015 0.05752,-0.545962 0.05644,-0.655438 -0.0033,-0.334614 0.544543,-0.959636 1.07848,-1.230423 0.798753,-0.405089 1.591411,-0.314302 2.261163,0.258981 1.051459,0.90001 1.059239,2.34191 0.01745,3.233645 -0.651209,0.557411 -1.457467,0.668959 -2.231147,0.308687 z"
       id="path15"
       transform="scale(0.26458333)" />
    <path
       style="fill:#f2f2f2;stroke:#000000;stroke-width:0.034303"
       d="M 30.903779,31.982351 C 30.369984,31.877738 28.888997,31.38492 28.35333,31.133654 28.033906,30.983821 27.547928,30.676416 27.273379,30.450531 26.99883,30.224646 26.712936,30.01844 26.638059,29.992296 26.563182,29.966152 26.370071,29.772542 26.208922,29.56205 26.047774,29.351559 25.659775,28.864247 25.346702,28.479135 24.71016,27.696122 24.18423,26.60607 23.897958,25.476444 23.746331,24.878129 23.723264,24.531766 23.74885,23.237516 c 0.01665,-0.842112 0.05453,-1.555292 0.08418,-1.584844 0.05571,-0.05552 0.602115,0.11714 1.189955,0.376013 0.299763,0.132009 0.356334,0.212892 0.521101,0.74505 0.265081,0.856146 0.537875,1.282175 1.034478,1.61557 0.518123,0.347841 0.941916,0.477922 1.557033,0.477922 1.284273,0 2.181556,-0.716574 2.569005,-2.051618 0.05963,-0.205463 0.108415,-0.495127 0.108415,-0.643697 0,-0.248166 0.05752,-0.297119 0.707421,-0.6021 0.389082,-0.182585 0.765859,-0.331973 0.837283,-0.331973 0.07142,0 0.403443,0.107336 0.737821,0.238525 l 0.607959,0.238525 0.05952,0.464865 c 0.12789,0.998792 0.344474,1.388152 1.093686,1.966165 0.620537,0.478741 1.256575,0.600755 2.252114,0.432031 0.55535,-0.09412 0.677059,-0.154764 1.11632,-0.556224 0.271157,-0.247822 0.559784,-0.577369 0.641392,-0.732326 0.08397,-0.159435 0.194631,-0.733272 0.254921,-1.321877 l 0.106542,-1.040136 0.398579,-0.343692 c 0.219218,-0.18903 0.437705,-0.330767 0.485528,-0.31497 0.124511,0.04113 0.389119,0.850968 0.498699,1.526282 0.05152,0.317533 0.09399,1.176797 0.09437,1.909476 l 6.86e-4,1.332143 -0.435592,1.214762 c -0.318825,0.889127 -0.561653,1.39369 -0.905856,1.88224 -1.303998,1.850857 -2.479224,2.768189 -4.388529,3.425498 -1.115026,0.383867 -1.183746,0.395739 -2.495899,0.431214 -0.742117,0.02006 -1.451409,0.01647 -1.576204,-0.008 z"
       id="path16"
       transform="scale(0.26458333)" />
    <path
       style="fill:#ffffff;stroke:#000000;stroke-width:0.034303"
       d="m 30.669316,52.606705 c -0.0208,-0.01875 -0.384974,-0.05892 -0.809277,-0.08925 -0.424303,-0.03034 -0.873565,-0.0761 -0.99836,-0.101688 -0.124795,-0.02559 -0.471952,-0.08996 -0.77146,-0.143048 -0.793908,-0.140718 -2.142673,-0.44732 -2.40514,-0.546739 -0.124795,-0.04727 -0.324777,-0.104632 -0.444405,-0.127471 -0.317684,-0.06065 -0.808666,-0.229894 -1.084599,-0.373863 -0.132448,-0.06911 -0.292422,-0.125898 -0.355497,-0.126206 -0.06308,-3.07e-4 -0.185601,-0.03797 -0.27228,-0.08369 -0.08668,-0.04572 -0.320967,-0.153422 -0.520639,-0.239335 -0.391349,-0.168387 -2.243335,-1.082354 -2.54128,-1.254138 -0.213442,-0.123065 -0.539561,-0.329199 -1.22526,-0.774469 -0.430311,-0.27943 -0.639401,-0.42815 -1.1345,-0.806943 -0.04992,-0.03819 -0.2522,-0.190734 -0.449516,-0.338982 -0.197316,-0.148248 -0.521893,-0.419254 -0.721282,-0.602235 l -0.362526,-0.332692 0.166312,-1.074088 c 0.23033,-1.48754 0.216829,-1.414455 0.466537,-2.525591 0.123319,-0.548737 0.240592,-1.079683 0.260606,-1.17988 0.02001,-0.100197 0.165016,-0.611017 0.322225,-1.135156 0.607408,-2.025118 1.626849,-3.752237 2.972138,-5.035346 0.831695,-0.793254 1.120059,-1.045574 1.194931,-1.045574 0.03031,0 0.157698,-0.0919 0.283083,-0.20421 0.301006,-0.26963 1.052527,-0.79415 1.137843,-0.79415 0.03704,0 0.193736,-0.09328 0.348202,-0.207283 0.154466,-0.114006 0.382952,-0.257476 0.507747,-0.318821 0.124795,-0.06135 0.43111,-0.225587 0.6807,-0.364981 0.24959,-0.139393 0.813329,-0.45006 1.252753,-0.69037 l 0.798952,-0.436928 0.895755,0.415755 c 0.492665,0.228665 1.011239,0.443396 1.152387,0.47718 0.141148,0.03378 0.297475,0.08526 0.347393,0.114394 0.113245,0.06609 0.135138,0.072 0.897896,0.242503 0.479802,0.10725 1.019218,0.131566 2.31438,0.104328 1.930409,-0.0406 2.272135,-0.121251 4.027836,-0.950657 0.976183,-0.461156 0.978118,-0.461626 1.270571,-0.3084 0.161094,0.0844 0.313352,0.17593 0.338348,0.203392 0.05758,0.06326 0.989331,0.630768 1.035616,0.630768 0.0281,0 0.745529,0.477319 1.80776,1.202733 0.459273,0.313645 0.836508,0.657404 1.876213,1.70972 0.623975,0.631544 1.184874,1.212358 1.246442,1.2907 0.463736,0.590069 1.306163,2.443264 1.534351,3.375307 0.106869,0.436514 0.499594,2.305731 0.531402,2.529271 0.166973,1.173432 0.254672,1.944482 0.412136,3.623463 0.133529,1.423781 0.10722,1.51618 -0.552786,1.941391 -0.295855,0.190605 -0.538275,0.377186 -0.538711,0.414624 -4.37e-4,0.03744 -0.04251,0.06807 -0.0935,0.06807 -0.08851,0 -0.810744,0.439264 -0.905654,0.550821 -0.0481,0.05653 -0.122795,0.09582 -1.40678,0.739886 -1.681712,0.843574 -3.728579,1.624923 -5.08256,1.940161 -0.675275,0.15722 -2.905836,0.491419 -3.827539,0.573468 -1.047722,0.09327 -3.495999,0.137245 -3.576964,0.06425 z"
       id="path17"
       transform="scale(0.26458333)" />
    <path
       style="fill:#ffffff;stroke:#000000;stroke-width:0.034303"
       d="m 24.691767,21.186684 c -0.371608,-0.174303 -0.692466,-0.33373 -0.713017,-0.354281 -0.07475,-0.07475 0.898575,-1.98933 1.287066,-2.531724 1.451066,-2.025915 3.902369,-3.408468 6.318663,-3.563773 2.580338,-0.165848 4.988653,0.762758 6.776112,2.612756 0.525651,0.544043 1.483048,1.85035 1.483048,2.023525 0,0.121195 -1.021327,1.047812 -1.15491,1.047812 -0.04407,0 -0.217369,-0.141603 -0.385115,-0.314673 -0.496643,-0.512405 -1.021138,-0.713525 -1.863475,-0.714558 -1.058787,-0.0013 -1.695474,0.357019 -2.335107,1.314162 l -0.220737,0.33031 -0.801577,-0.309895 -0.801577,-0.309895 -0.774331,0.388004 c -0.425882,0.213403 -0.801956,0.39985 -0.835719,0.414328 -0.03376,0.01448 -0.187997,-0.169312 -0.342742,-0.40842 -0.487405,-0.753127 -1.2597,-1.14837 -2.23813,-1.145424 -1.008022,0.003 -1.791502,0.496255 -2.318342,1.459451 -0.116041,0.212152 -0.254515,0.384263 -0.30772,0.38247 -0.05321,-0.0018 -0.400781,-0.145871 -0.77239,-0.320175 z"
       id="path18"
       transform="scale(0.26458333)" />
    <path
       style="fill:#ffffff;stroke:#000000;stroke-width:0.034303"
       d="M 35.623299,23.835092 C 34.765776,23.429697 34.4647,22.928159 34.48168,21.933364 c 0.01201,-0.703337 0.141937,-1.017171 0.571109,-1.379447 0.909194,-0.767477 1.983217,-0.773216 2.782523,-0.01487 0.856212,0.812339 0.856212,2.128162 0,2.9405 -0.631736,0.599365 -1.426161,0.727055 -2.212013,0.355543 z"
       id="path19"
       transform="scale(0.26458333)" />
    <path
       style="fill:#ffaaaa;stroke:#000000;stroke-width:0.034303"
       d="m 27.364139,24.062396 c -0.414313,-0.190058 -0.811678,-0.562519 -1.026419,-0.96209 -0.197029,-0.366615 -0.197029,-1.361598 0,-1.728213 0.659,-1.226212 2.163734,-1.494283 3.147672,-0.560764 0.805678,0.764394 0.85541,1.899346 0.119017,2.71612 -0.608468,0.674886 -1.481016,0.883239 -2.24027,0.534947 z"
       id="path20"
       transform="scale(0.26458333)" />
    <path
       style="fill:#ffaaaa;stroke:#000000;stroke-width:0.034303"
       d="m 35.598071,23.730572 c -0.263465,-0.133374 -0.590201,-0.388255 -0.72608,-0.566401 -0.227766,-0.298617 -0.247052,-0.38947 -0.247052,-1.163841 0,-0.978611 0.100667,-1.178445 0.818459,-1.624711 0.37211,-0.231348 0.528698,-0.27228 1.041632,-0.27228 0.50708,0 0.664227,0.04007 0.982012,0.250365 0.20808,0.137701 0.490991,0.420612 0.628692,0.628692 0.214661,0.324376 0.250365,0.470817 0.250365,1.026903 0,0.556086 -0.0357,0.702528 -0.250365,1.026903 -0.579459,0.875622 -1.586554,1.155602 -2.497663,0.69437 z"
       id="path21"
       transform="scale(0.26458333)" />
  </g>
</svg>
